<?xml version="1.0" encoding="UTF-8"?><svg id="Layer_1" xmlns="http://www.w3.org/2000/svg" viewBox="0 0 23.68 22.22"><defs><style>.cls-1{fill:#231f20;}</style></defs><path class="cls-1" d="M9.28,3.48c-.33,1.46-.9,2.89-1.8,4.08-.19,.25-.15,.62,.13,.78,.91,.52,2,.89,3.28,1.19,.37,.09,.54,.52,.32,.83l-.59,.83c-.08,.11-.13,.17-.24,.17-.04,0-.07-.01-.13-.02-1.67-.44-3.04-1.06-4.12-1.83-.19-.13-.43-.13-.61,0-1.11,.81-2.44,1.45-4.14,1.94-.22,.05-.29,0-.4-.16l-.98-1.31c1.72-.44,3.03-.95,4.06-1.59,.27-.17,.3-.53,.11-.78-.39-.51-.71-1.08-.98-1.66-.36-.79-.6-1.62-.79-2.47h-.24l-1.8,.04-.08-.1v-1.39l.1-.07,1.79,.04h2.19c.29,0,.53-.24,.53-.53V.12l.08-.1h1.64l.08,.08V1.46c0,.29,.24,.53,.53,.53h2.27l1.81-.04,.08,.08v1.39l-.08,.08-1.81-.04h-.22Zm-4.34,0c-.36,0-.62,.35-.51,.7,.16,.53,.36,1.04,.62,1.52,.22,.41,.48,.78,.77,1.14,.63-.79,1.06-1.7,1.35-2.66,.1-.35-.15-.7-.51-.7h-1.71Z"/><path class="cls-1" d="M21.79,6.67l1.82-.04,.07,.06v1.39l-.07,.06-1.82-.04h-1.77c-.44,0-.79,.36-.77,.8l.03,.92c0,1.22-.53,1.67-2.54,1.67-.24,0-.26-.02-.31-.14l-.67-1.54c.56,0,1-.01,1.38-.05,.25-.02,.32-.08,.32-.37v-1.28h-2.81l-1.81,.04-.08-.07v-1.37l.07-.07,1.82,.04h2.81v-.88l.1-.1h.52c.32-.24,.64-.49,.95-.77h-2.38l-1.64,.04-.08-.08v-1.34l.07-.07,1.65,.04h3.43l.96-.07,.68,.7v-1.38h-6.28c-.43,0-.77,.35-.77,.77h0c0,.43-.35,.77-.77,.77h-.16c-.44,0-.79-.36-.77-.8l.03-.76v-.36l-.04-1.02,.11-.08,1.96,.04h2.22V.08l.08-.08h1.61l.08,.08V1.31h2.66l1.67-.04,.1,.08-.04,.91v.35l.03,.88c.02,.44-.33,.8-.77,.8h-.81c.04,.1,0,.18-.14,.31-.8,.71-1.62,1.38-2.48,1.99v.07h2.58Z"/><path class="cls-1" d="M7.5,16.13c-.31,0-.57,.23-.63,.53-.16,.81-.4,1.5-.75,2.14-.85,1.6-1.99,2.57-3.42,3.36-.06,.04-.11,.06-.14,.06-.06,0-.11-.04-.23-.12l-1.36-1.01c1.57-.78,2.65-1.67,3.36-3.01,.29-.55,.5-1.19,.64-1.96h-1.1l-1.72,.04-.08-.1v-1.57l.11-.07,1.68,.04h1.31c.02-.54,.05-1.14,.05-1.82l.08-.1h1.8l.08,.08c0,.42,0,.81-.02,1.18s.28,.65,.64,.65h1.33l1.48-.04,.08,.11c-.08,1.93-.29,4.2-.52,5.16-.37,1.58-.72,2.3-2.89,2.3-.31,0-.32-.02-.41-.22l-.71-1.68c.47,.02,.9,.04,1.33,.02,.37-.01,.61-.08,.84-1.04,.12-.52,.23-1.39,.29-2.26,.03-.37-.27-.69-.64-.69h-.5Z"/><path class="cls-1" d="M13.54,15.01l1.16-1.31,.12-.02c.72,.36,1.68,1,2.43,1.65v.12l-1.25,1.45h-.11c-.72-.68-1.52-1.27-2.35-1.79v-.11Zm9.28,1c.04,.1,.05,.17,.05,.23,0,.08-.04,.13-.12,.22-2.13,2.35-4.74,4.1-7.9,5.54l-.12-.02-1.08-1.62,.02-.12c2.45-.94,4.97-2.54,7.15-4.67,.64-.63,1.71-.39,2,.45h0Z"/></svg>