<?xml version="1.0" encoding="UTF-8"?><svg id="Layer_2" xmlns="http://www.w3.org/2000/svg" viewBox="0 0 36.09 20.83"><defs><style>.cls-1{fill:#231f20;}</style></defs><g id="Layer_1-2"><g><path class="cls-1" d="M36.09,3.61c-.24-.02-.31-.02-.65-.04-.08,1.74-.35,3-.88,4.15-.13,.29-.1,.64,.12,.86,.28,.28,.59,.53,.91,.74s.42,.67,.21,1.01c-.07,.12-.13,.23-.19,.35-.22,.42-.77,.53-1.14,.24-.26-.21-.51-.43-.75-.67-.28-.28-.74-.27-1.03,0-.35,.32-.71,.59-1.12,.85-.36,.22-.83,.11-1.05-.25-.1-.16-.22-.32-.36-.51l-.47,.76c-.36-.27-.56-.41-.83-.58-.25-.15-.57-.15-.8,.01-.53,.37-1.09,.62-1.81,.81-.36,.1-.74-.09-.9-.43l-.02-.05c-.21-.44,.02-.96,.5-1.08,.33-.08,.62-.19,.97-.35-.61-.26-.9-.38-1.72-.66,.4-.55,.54-.77,.77-1.16-.5,0-.73,.01-1.06,.06v-1.66c.29,.05,.55,.06,1.02,.06h.78c.1-.23,.12-.31,.23-.59l1.77,.24c-.06,.11-.12,.23-.17,.35h1.61c.28,0,.41,0,.66-.02-.22-.38-.35-.58-.61-.88-.08,.16-.11,.22-.19,.41-.59-.43-.78-.64-1.07-1.09,.01,.14,.02,.35,.02,.41v.22c0,.13,.01,.25,.02,.37h-1.75s0-.05,.01-.13v-.4c.01-.08,.02-.25,.04-.46-.39,.47-.65,.74-.97,1.01-.35,.28-.85,.18-1.1-.19h0c-.23-.36-.13-.84,.23-1.06,.31-.19,.6-.4,.89-.68h-.35c-.43,0-.77,.01-1.06,.05v-1.52c.3,.04,.54,.05,1,.05-.3-.59-.54-.94-.92-1.38l.86-.39c.32-.14,.7-.05,.91,.23s.36,.5,.52,.78v-.49c0-.38-.02-.59-.06-.79h1.8c-.05,.22-.05,.38-.05,.78v.68c.19-.29,.35-.55,.49-.82,.18-.36,.6-.52,.97-.37l.04,.02c.41,.17,.58,.67,.37,1.06-.13,.24-.25,.44-.4,.68,.35,0,.48-.01,.61-.02v1.39c.34-.78,.66-1.88,.8-2.73,.07-.42,.47-.69,.89-.61l1.01,.19q-.04,.1-.07,.28s-.02,.1-.05,.22c-.02,.05-.05,.14-.07,.29-.08,.35-.11,.43-.2,.78h1.7c.59,0,.88-.01,1.14-.06v1.73Zm-8.92-1.98l-1.1,.53h1.1v-.53Zm.47,5.98c-.11,.18-.14,.24-.26,.43,.35,.12,.47,.16,.73,.26,.18-.29,.23-.4,.32-.7h-.79Zm2.27-5.46l-1.04-.47v.47h1.04Zm1.07,5.51c-.23-.02-.41-.04-.8-.05-.18,.59-.29,.86-.56,1.32,.27,.12,.42,.19,.66,.33s.56,.14,.8-.02c.28-.19,.53-.4,.76-.61s.32-.58,.18-.88c-.24-.53-.4-1.01-.57-1.76-.16,.2-.2,.25-.47,.55v1.13Zm-1.28-4.08c.22,.22,.37,.32,.9,.61,.12-.22,.19-.34,.31-.59-.16-.01-.34-.02-.68-.02h-.53Zm3.02-.01c-.06,.16-.08,.2-.16,.36,.17,1.09,.31,1.63,.7,2.52,.31-.88,.43-1.64,.48-2.88h-1.02Z"/><path class="cls-1" d="M16.27,13.65c.45,0,.57-.02,.77-.1l.71,.72c-.09,.16-.11,.23-.16,.57-.16,1.16-.37,1.9-.72,2.61-.53,1.07-1.31,1.9-2.41,2.53-.39,.23-.75,.4-1.28,.6-.33,.13-.7-.02-.87-.33-.05-.1-.11-.19-.17-.28-.25-.38-.04-.89,.39-1.03,.86-.28,1.49-.64,2-1.12,.52-.5,.88-1.08,1.09-1.81,.13-.44-.22-.89-.68-.89h-3.21v.84c0,.43,0,.73,.04,.99h-1.76c.04-.35,.06-.59,.06-1.03v-1.31c0-.39-.02-.65-.05-1.01,.49,.05,.65,.06,1.17,.06h1.68v-.57c0-.34-.02-.56-.06-.86h1.8c-.03,.24-.05,.51-.04,.85v.58h1.69Z"/><path class="cls-1" d="M32.47,12.06s-.14,.29-.41,.83l2.56-.03c.28,0,.4-.03,.58-.12l.85,.84c-.11,.12-.14,.18-.22,.41-.56,1.69-1.07,2.72-1.77,3.67-.61,.82-1.39,1.54-2.31,2.15-.39,.25-.71,.44-1.16,.65-.26,.12-.57,.04-.73-.2-.1-.15-.2-.28-.3-.42-.24-.29-.14-.73,.21-.88,.92-.39,1.61-.84,2.24-1.44,.12-.11,.11-.31-.02-.41-.48-.38-.91-.65-1.53-.98l.7-.84c.18-.21,.48-.26,.72-.13,.42,.23,.69,.4,1.01,.62,.18,.12,.43,.07,.54-.11,.27-.46,.45-.89,.61-1.4l-2.32,.02c-.2,0-.37,.11-.48,.27-.43,.7-.94,1.31-1.6,1.94-.22,.21-.56,.19-.78,0-.12-.11-.24-.21-.37-.3-.29-.21-.31-.64-.04-.88,.79-.7,1.33-1.38,1.78-2.24,.17-.32,.3-.6,.41-.88,.1-.26,.37-.41,.64-.36l1.21,.24Z"/><path class="cls-1" d="M9.48,3.51c-.33,1.46-.9,2.89-1.8,4.08-.19,.25-.15,.62,.13,.78,.91,.52,2,.89,3.28,1.19,.37,.09,.54,.52,.32,.83l-.59,.83c-.08,.11-.13,.17-.24,.17-.04,0-.07-.01-.13-.02-1.67-.44-3.04-1.06-4.12-1.83-.19-.13-.43-.13-.61,0-1.11,.81-2.44,1.45-4.14,1.94-.22,.05-.29,0-.4-.16l-.98-1.31c1.72-.44,3.03-.95,4.06-1.59,.27-.17,.3-.53,.11-.78-.39-.51-.71-1.08-.98-1.66-.36-.79-.6-1.62-.79-2.47h-.24l-1.8,.04-.08-.1v-1.39l.1-.07,1.79,.04h2.19c.29,0,.53-.24,.53-.53V.15l.08-.1h1.64l.08,.08V1.49c0,.29,.24,.53,.53,.53h2.27l1.81-.04,.08,.08v1.39l-.08,.08-1.81-.04h-.22Zm-4.34,0c-.36,0-.62,.35-.51,.7,.16,.53,.36,1.04,.62,1.52,.22,.41,.48,.78,.77,1.14,.63-.79,1.06-1.7,1.35-2.66,.1-.35-.15-.7-.51-.7h-1.71Z"/><path class="cls-1" d="M21.98,6.67l1.82-.04,.07,.06v1.39l-.07,.06-1.82-.04h-1.77c-.44,0-.79,.36-.77,.8l.03,.92c0,1.22-.53,1.67-2.54,1.67-.24,0-.26-.02-.31-.14l-.67-1.54c.56,0,1-.01,1.38-.05,.25-.02,.32-.08,.32-.37v-1.28h-2.81l-1.81,.04-.08-.07v-1.37l.07-.07,1.82,.04h2.81v-.88l.1-.1h.52c.32-.24,.64-.49,.95-.77h-2.38l-1.64,.04-.08-.08v-1.34l.07-.07,1.65,.04h3.43l.96-.07,.68,.7v-1.38h-6.28c-.43,0-.77,.35-.77,.77h0c0,.43-.35,.77-.77,.77h-.16c-.44,0-.79-.36-.77-.8l.03-.76v-.36l-.04-1.02,.11-.08,1.96,.04h2.22V.08l.08-.08h1.61l.08,.08V1.31h2.66l1.67-.04,.1,.08-.04,.91v.35l.03,.88c.02,.44-.33,.8-.77,.8h-.81c.04,.1,0,.18-.14,.31-.8,.71-1.62,1.38-2.48,1.99v.07h2.58Z"/><path class="cls-1" d="M6.03,15.19c-.29,0-.52,.21-.58,.49-.15,.75-.37,1.39-.69,1.98-.79,1.48-1.84,2.37-3.16,3.11-.06,.03-.1,.06-.13,.06-.06,0-.1-.03-.21-.11l-1.25-.93c1.45-.72,2.45-1.54,3.11-2.78,.27-.51,.47-1.1,.59-1.81h-1.02l-1.59,.03-.08-.09v-1.45l.1-.07,1.55,.03h1.21c.02-.5,.04-1.05,.04-1.69l.08-.09h1.66l.08,.08c0,.39,0,.75-.02,1.09s.26,.6,.59,.6h1.23l1.36-.03,.08,.1c-.08,1.79-.27,3.88-.48,4.77-.34,1.46-.67,2.13-2.67,2.13-.29,0-.3-.02-.38-.2l-.65-1.55c.43,.02,.83,.03,1.23,.02,.34-.01,.57-.08,.78-.97,.11-.48,.21-1.29,.27-2.09,.03-.34-.25-.63-.59-.63h-.46Z"/><path class="cls-1" d="M19.2,13.9l1.08-1.21,.11-.02c.67,.33,1.55,.92,2.25,1.53v.11l-1.15,1.34h-.1c-.67-.63-1.41-1.18-2.17-1.65v-.1Zm8.59,.92c.03,.09,.04,.16,.04,.21,0,.08-.03,.12-.11,.2-1.97,2.17-4.38,3.79-7.31,5.12l-.11-.02-1-1.5,.02-.11c2.27-.87,4.6-2.35,6.61-4.32,.59-.58,1.58-.36,1.85,.42h0Z"/></g></g></svg>